<?xml version="1.0" encoding="utf-8" standalone="no"?>
<!DOCTYPE svg PUBLIC "-//W3C//DTD SVG 1.1//EN"
  "http://www.w3.org/Graphics/SVG/1.1/DTD/svg11.dtd">
<svg xmlns:xlink="http://www.w3.org/1999/xlink" width="851.406462pt" height="649.668601pt" viewBox="0 0 851.406462 649.668601" xmlns="http://www.w3.org/2000/svg" version="1.1">
 <metadata>
  <rdf:RDF xmlns:dc="http://purl.org/dc/elements/1.1/" xmlns:cc="http://creativecommons.org/ns#" xmlns:rdf="http://www.w3.org/1999/02/22-rdf-syntax-ns#">
   <cc:Work>
    <dc:type rdf:resource="http://purl.org/dc/dcmitype/StillImage"/>
    <dc:date>2026-07-01T18:02:40.568326</dc:date>
    <dc:format>image/svg+xml</dc:format>
    <dc:creator>
     <cc:Agent>
      <dc:title>Matplotlib v3.10.9, https://matplotlib.org/</dc:title>
     </cc:Agent>
    </dc:creator>
   </cc:Work>
  </rdf:RDF>
 </metadata>
 <defs>
  <style type="text/css">*{stroke-linejoin: round; stroke-linecap: butt}</style>
 </defs>
 <g id="figure_1">
  <g id="patch_1">
   <path d="M 0 649.668601 
L 851.406462 649.668601 
L 851.406462 0 
L 0 0 
z
" style="fill: #ffffff"/>
  </g>
  <g id="axes_1">
   <g id="text_1">
    <!-- Input -->
    <g transform="translate(155.787848 558.729285) scale(0.11 -0.11)">
     <defs>
      <path id="DejaVuSans-Bold-49" d="M 588 4666 
L 1791 4666 
L 1791 0 
L 588 0 
L 588 4666 
z
" transform="scale(0.015625)"/>
      <path id="DejaVuSans-Bold-6e" d="M 4056 2131 
L 4056 0 
L 2931 0 
L 2931 347 
L 2931 1631 
Q 2931 2084 2911 2256 
Q 2891 2428 2841 2509 
Q 2775 2619 2662 2680 
Q 2550 2741 2406 2741 
Q 2056 2741 1856 2470 
Q 1656 2200 1656 1722 
L 1656 0 
L 538 0 
L 538 3500 
L 1656 3500 
L 1656 2988 
Q 1909 3294 2193 3439 
Q 2478 3584 2822 3584 
Q 3428 3584 3742 3212 
Q 4056 2841 4056 2131 
z
" transform="scale(0.015625)"/>
      <path id="DejaVuSans-Bold-70" d="M 1656 506 
L 1656 -1331 
L 538 -1331 
L 538 3500 
L 1656 3500 
L 1656 2988 
Q 1888 3294 2169 3439 
Q 2450 3584 2816 3584 
Q 3463 3584 3878 3070 
Q 4294 2556 4294 1747 
Q 4294 938 3878 423 
Q 3463 -91 2816 -91 
Q 2450 -91 2169 54 
Q 1888 200 1656 506 
z
M 2400 2772 
Q 2041 2772 1848 2508 
Q 1656 2244 1656 1747 
Q 1656 1250 1848 986 
Q 2041 722 2400 722 
Q 2759 722 2948 984 
Q 3138 1247 3138 1747 
Q 3138 2247 2948 2509 
Q 2759 2772 2400 2772 
z
" transform="scale(0.015625)"/>
      <path id="DejaVuSans-Bold-75" d="M 500 1363 
L 500 3500 
L 1625 3500 
L 1625 3150 
Q 1625 2866 1622 2436 
Q 1619 2006 1619 1863 
Q 1619 1441 1641 1255 
Q 1663 1069 1716 984 
Q 1784 875 1895 815 
Q 2006 756 2150 756 
Q 2500 756 2700 1025 
Q 2900 1294 2900 1772 
L 2900 3500 
L 4019 3500 
L 4019 0 
L 2900 0 
L 2900 506 
Q 2647 200 2364 54 
Q 2081 -91 1741 -91 
Q 1134 -91 817 281 
Q 500 653 500 1363 
z
" transform="scale(0.015625)"/>
      <path id="DejaVuSans-Bold-74" d="M 1759 4494 
L 1759 3500 
L 2913 3500 
L 2913 2700 
L 1759 2700 
L 1759 1216 
Q 1759 972 1856 886 
Q 1953 800 2241 800 
L 2816 800 
L 2816 0 
L 1856 0 
Q 1194 0 917 276 
Q 641 553 641 1216 
L 641 2700 
L 84 2700 
L 84 3500 
L 641 3500 
L 641 4494 
L 1759 4494 
z
" transform="scale(0.015625)"/>
     </defs>
     <use xlink:href="#DejaVuSans-Bold-49"/>
     <use xlink:href="#DejaVuSans-Bold-6e" transform="translate(37.207031 0)"/>
     <use xlink:href="#DejaVuSans-Bold-70" transform="translate(108.398438 0)"/>
     <use xlink:href="#DejaVuSans-Bold-75" transform="translate(179.980469 0)"/>
     <use xlink:href="#DejaVuSans-Bold-74" transform="translate(251.171875 0)"/>
    </g>
    <!-- $C=3, H=12, W=12$ -->
    <g transform="translate(115.41527 571.046879) scale(0.11 -0.11)">
     <defs>
      <path id="DejaVuSans-Oblique-43" d="M 4447 4306 
L 4319 3641 
Q 4019 3944 3683 4091 
Q 3347 4238 2956 4238 
Q 2422 4238 2017 3981 
Q 1613 3725 1319 3200 
Q 1131 2863 1032 2486 
Q 934 2109 934 1728 
Q 934 1091 1264 756 
Q 1594 422 2222 422 
Q 2656 422 3056 561 
Q 3456 700 3834 978 
L 3688 231 
Q 3316 72 2936 -9 
Q 2556 -91 2175 -91 
Q 1278 -91 773 396 
Q 269 884 269 1753 
Q 269 2309 461 2846 
Q 653 3384 1013 3828 
Q 1394 4300 1883 4525 
Q 2372 4750 3022 4750 
Q 3422 4750 3780 4639 
Q 4138 4528 4447 4306 
z
" transform="scale(0.015625)"/>
      <path id="DejaVuSans-3d" d="M 678 2906 
L 4684 2906 
L 4684 2381 
L 678 2381 
L 678 2906 
z
M 678 1631 
L 4684 1631 
L 4684 1100 
L 678 1100 
L 678 1631 
z
" transform="scale(0.015625)"/>
      <path id="DejaVuSans-33" d="M 2597 2516 
Q 3050 2419 3304 2112 
Q 3559 1806 3559 1356 
Q 3559 666 3084 287 
Q 2609 -91 1734 -91 
Q 1441 -91 1130 -33 
Q 819 25 488 141 
L 488 750 
Q 750 597 1062 519 
Q 1375 441 1716 441 
Q 2309 441 2620 675 
Q 2931 909 2931 1356 
Q 2931 1769 2642 2001 
Q 2353 2234 1838 2234 
L 1294 2234 
L 1294 2753 
L 1863 2753 
Q 2328 2753 2575 2939 
Q 2822 3125 2822 3475 
Q 2822 3834 2567 4026 
Q 2313 4219 1838 4219 
Q 1578 4219 1281 4162 
Q 984 4106 628 3988 
L 628 4550 
Q 988 4650 1302 4700 
Q 1616 4750 1894 4750 
Q 2613 4750 3031 4423 
Q 3450 4097 3450 3541 
Q 3450 3153 3228 2886 
Q 3006 2619 2597 2516 
z
" transform="scale(0.015625)"/>
      <path id="DejaVuSans-2c" d="M 750 794 
L 1409 794 
L 1409 256 
L 897 -744 
L 494 -744 
L 750 256 
L 750 794 
z
" transform="scale(0.015625)"/>
      <path id="DejaVuSans-Oblique-48" d="M 1081 4666 
L 1716 4666 
L 1344 2753 
L 3634 2753 
L 4006 4666 
L 4641 4666 
L 3731 0 
L 3097 0 
L 3531 2222 
L 1241 2222 
L 806 0 
L 172 0 
L 1081 4666 
z
" transform="scale(0.015625)"/>
      <path id="DejaVuSans-31" d="M 794 531 
L 1825 531 
L 1825 4091 
L 703 3866 
L 703 4441 
L 1819 4666 
L 2450 4666 
L 2450 531 
L 3481 531 
L 3481 0 
L 794 0 
L 794 531 
z
" transform="scale(0.015625)"/>
      <path id="DejaVuSans-32" d="M 1228 531 
L 3431 531 
L 3431 0 
L 469 0 
L 469 531 
Q 828 903 1448 1529 
Q 2069 2156 2228 2338 
Q 2531 2678 2651 2914 
Q 2772 3150 2772 3378 
Q 2772 3750 2511 3984 
Q 2250 4219 1831 4219 
Q 1534 4219 1204 4116 
Q 875 4013 500 3803 
L 500 4441 
Q 881 4594 1212 4672 
Q 1544 4750 1819 4750 
Q 2544 4750 2975 4387 
Q 3406 4025 3406 3419 
Q 3406 3131 3298 2873 
Q 3191 2616 2906 2266 
Q 2828 2175 2409 1742 
Q 1991 1309 1228 531 
z
" transform="scale(0.015625)"/>
      <path id="DejaVuSans-Oblique-57" d="M 616 4666 
L 1228 4666 
L 1453 697 
L 3213 4666 
L 3916 4666 
L 4147 697 
L 5888 4666 
L 6528 4666 
L 4453 0 
L 3659 0 
L 3444 3891 
L 1697 0 
L 903 0 
L 616 4666 
z
" transform="scale(0.015625)"/>
     </defs>
     <use xlink:href="#DejaVuSans-Oblique-43" transform="translate(0 0.78125)"/>
     <use xlink:href="#DejaVuSans-3d" transform="translate(89.306641 0.78125)"/>
     <use xlink:href="#DejaVuSans-33" transform="translate(192.578125 0.78125)"/>
     <use xlink:href="#DejaVuSans-2c" transform="translate(256.201172 0.78125)"/>
     <use xlink:href="#DejaVuSans-Oblique-48" transform="translate(307.470703 0.78125)"/>
     <use xlink:href="#DejaVuSans-3d" transform="translate(402.148438 0.78125)"/>
     <use xlink:href="#DejaVuSans-31" transform="translate(505.419922 0.78125)"/>
     <use xlink:href="#DejaVuSans-32" transform="translate(569.042969 0.78125)"/>
     <use xlink:href="#DejaVuSans-2c" transform="translate(632.666016 0.78125)"/>
     <use xlink:href="#DejaVuSans-Oblique-57" transform="translate(683.935547 0.78125)"/>
     <use xlink:href="#DejaVuSans-3d" transform="translate(802.294922 0.78125)"/>
     <use xlink:href="#DejaVuSans-31" transform="translate(905.566406 0.78125)"/>
     <use xlink:href="#DejaVuSans-32" transform="translate(969.189453 0.78125)"/>
    </g>
   </g>
   <g id="text_2">
    <!-- depth -->
    <g style="fill: #555555" transform="translate(7.2 381.980974) scale(0.1 -0.1)">
     <defs>
      <path id="DejaVuSans-64" d="M 2906 2969 
L 2906 4863 
L 3481 4863 
L 3481 0 
L 2906 0 
L 2906 525 
Q 2725 213 2448 61 
Q 2172 -91 1784 -91 
Q 1150 -91 751 415 
Q 353 922 353 1747 
Q 353 2572 751 3078 
Q 1150 3584 1784 3584 
Q 2172 3584 2448 3432 
Q 2725 3281 2906 2969 
z
M 947 1747 
Q 947 1113 1208 752 
Q 1469 391 1925 391 
Q 2381 391 2643 752 
Q 2906 1113 2906 1747 
Q 2906 2381 2643 2742 
Q 2381 3103 1925 3103 
Q 1469 3103 1208 2742 
Q 947 2381 947 1747 
z
" transform="scale(0.015625)"/>
      <path id="DejaVuSans-65" d="M 3597 1894 
L 3597 1613 
L 953 1613 
Q 991 1019 1311 708 
Q 1631 397 2203 397 
Q 2534 397 2845 478 
Q 3156 559 3463 722 
L 3463 178 
Q 3153 47 2828 -22 
Q 2503 -91 2169 -91 
Q 1331 -91 842 396 
Q 353 884 353 1716 
Q 353 2575 817 3079 
Q 1281 3584 2069 3584 
Q 2775 3584 3186 3129 
Q 3597 2675 3597 1894 
z
M 3022 2063 
Q 3016 2534 2758 2815 
Q 2500 3097 2075 3097 
Q 1594 3097 1305 2825 
Q 1016 2553 972 2059 
L 3022 2063 
z
" transform="scale(0.015625)"/>
      <path id="DejaVuSans-70" d="M 1159 525 
L 1159 -1331 
L 581 -1331 
L 581 3500 
L 1159 3500 
L 1159 2969 
Q 1341 3281 1617 3432 
Q 1894 3584 2278 3584 
Q 2916 3584 3314 3078 
Q 3713 2572 3713 1747 
Q 3713 922 3314 415 
Q 2916 -91 2278 -91 
Q 1894 -91 1617 61 
Q 1341 213 1159 525 
z
M 3116 1747 
Q 3116 2381 2855 2742 
Q 2594 3103 2138 3103 
Q 1681 3103 1420 2742 
Q 1159 2381 1159 1747 
Q 1159 1113 1420 752 
Q 1681 391 2138 391 
Q 2594 391 2855 752 
Q 3116 1113 3116 1747 
z
" transform="scale(0.015625)"/>
      <path id="DejaVuSans-74" d="M 1172 4494 
L 1172 3500 
L 2356 3500 
L 2356 3053 
L 1172 3053 
L 1172 1153 
Q 1172 725 1289 603 
Q 1406 481 1766 481 
L 2356 481 
L 2356 0 
L 1766 0 
Q 1100 0 847 248 
Q 594 497 594 1153 
L 594 3053 
L 172 3053 
L 172 3500 
L 594 3500 
L 594 4494 
L 1172 4494 
z
" transform="scale(0.015625)"/>
      <path id="DejaVuSans-68" d="M 3513 2113 
L 3513 0 
L 2938 0 
L 2938 2094 
Q 2938 2591 2744 2837 
Q 2550 3084 2163 3084 
Q 1697 3084 1428 2787 
Q 1159 2491 1159 1978 
L 1159 0 
L 581 0 
L 581 4863 
L 1159 4863 
L 1159 2956 
Q 1366 3272 1645 3428 
Q 1925 3584 2291 3584 
Q 2894 3584 3203 3211 
Q 3513 2838 3513 2113 
z
" transform="scale(0.015625)"/>
     </defs>
     <use xlink:href="#DejaVuSans-64"/>
     <use xlink:href="#DejaVuSans-65" transform="translate(63.476562 0)"/>
     <use xlink:href="#DejaVuSans-70" transform="translate(125 0)"/>
     <use xlink:href="#DejaVuSans-74" transform="translate(188.476562 0)"/>
     <use xlink:href="#DejaVuSans-68" transform="translate(227.685547 0)"/>
    </g>
    <!-- $C=3$ -->
    <g style="fill: #555555" transform="translate(10.607813 393.178786) scale(0.1 -0.1)">
     <use xlink:href="#DejaVuSans-Oblique-43" transform="translate(0 0.78125)"/>
     <use xlink:href="#DejaVuSans-3d" transform="translate(89.306641 0.78125)"/>
     <use xlink:href="#DejaVuSans-33" transform="translate(192.578125 0.78125)"/>
    </g>
   </g>
   <g id="text_3">
    <!-- 5 filters, each $3\times3\times3$ -->
    <g transform="translate(337.598791 640.180945) scale(0.11 -0.11)">
     <defs>
      <path id="DejaVuSans-Bold-35" d="M 678 4666 
L 3669 4666 
L 3669 3781 
L 1638 3781 
L 1638 3059 
Q 1775 3097 1914 3117 
Q 2053 3138 2203 3138 
Q 3056 3138 3531 2711 
Q 4006 2284 4006 1522 
Q 4006 766 3489 337 
Q 2972 -91 2053 -91 
Q 1656 -91 1267 -14 
Q 878 63 494 219 
L 494 1166 
Q 875 947 1217 837 
Q 1559 728 1863 728 
Q 2300 728 2551 942 
Q 2803 1156 2803 1522 
Q 2803 1891 2551 2103 
Q 2300 2316 1863 2316 
Q 1603 2316 1309 2248 
Q 1016 2181 678 2041 
L 678 4666 
z
" transform="scale(0.015625)"/>
      <path id="DejaVuSans-Bold-20" transform="scale(0.015625)"/>
      <path id="DejaVuSans-Bold-66" d="M 2841 4863 
L 2841 4128 
L 2222 4128 
Q 1984 4128 1890 4042 
Q 1797 3956 1797 3744 
L 1797 3500 
L 2753 3500 
L 2753 2700 
L 1797 2700 
L 1797 0 
L 678 0 
L 678 2700 
L 122 2700 
L 122 3500 
L 678 3500 
L 678 3744 
Q 678 4316 997 4589 
Q 1316 4863 1984 4863 
L 2841 4863 
z
" transform="scale(0.015625)"/>
      <path id="DejaVuSans-Bold-69" d="M 538 3500 
L 1656 3500 
L 1656 0 
L 538 0 
L 538 3500 
z
M 538 4863 
L 1656 4863 
L 1656 3950 
L 538 3950 
L 538 4863 
z
" transform="scale(0.015625)"/>
      <path id="DejaVuSans-Bold-6c" d="M 538 4863 
L 1656 4863 
L 1656 0 
L 538 0 
L 538 4863 
z
" transform="scale(0.015625)"/>
      <path id="DejaVuSans-Bold-65" d="M 4031 1759 
L 4031 1441 
L 1416 1441 
Q 1456 1047 1700 850 
Q 1944 653 2381 653 
Q 2734 653 3104 758 
Q 3475 863 3866 1075 
L 3866 213 
Q 3469 63 3072 -14 
Q 2675 -91 2278 -91 
Q 1328 -91 801 392 
Q 275 875 275 1747 
Q 275 2603 792 3093 
Q 1309 3584 2216 3584 
Q 3041 3584 3536 3087 
Q 4031 2591 4031 1759 
z
M 2881 2131 
Q 2881 2450 2695 2645 
Q 2509 2841 2209 2841 
Q 1884 2841 1681 2658 
Q 1478 2475 1428 2131 
L 2881 2131 
z
" transform="scale(0.015625)"/>
      <path id="DejaVuSans-Bold-72" d="M 3138 2547 
Q 2991 2616 2845 2648 
Q 2700 2681 2553 2681 
Q 2122 2681 1889 2404 
Q 1656 2128 1656 1613 
L 1656 0 
L 538 0 
L 538 3500 
L 1656 3500 
L 1656 2925 
Q 1872 3269 2151 3426 
Q 2431 3584 2822 3584 
Q 2878 3584 2943 3579 
Q 3009 3575 3134 3559 
L 3138 2547 
z
" transform="scale(0.015625)"/>
      <path id="DejaVuSans-Bold-73" d="M 3272 3391 
L 3272 2541 
Q 2913 2691 2578 2766 
Q 2244 2841 1947 2841 
Q 1628 2841 1473 2761 
Q 1319 2681 1319 2516 
Q 1319 2381 1436 2309 
Q 1553 2238 1856 2203 
L 2053 2175 
Q 2913 2066 3209 1816 
Q 3506 1566 3506 1031 
Q 3506 472 3093 190 
Q 2681 -91 1863 -91 
Q 1516 -91 1145 -36 
Q 775 19 384 128 
L 384 978 
Q 719 816 1070 734 
Q 1422 653 1784 653 
Q 2113 653 2278 743 
Q 2444 834 2444 1013 
Q 2444 1163 2330 1236 
Q 2216 1309 1875 1350 
L 1678 1375 
Q 931 1469 631 1722 
Q 331 1975 331 2491 
Q 331 3047 712 3315 
Q 1094 3584 1881 3584 
Q 2191 3584 2531 3537 
Q 2872 3491 3272 3391 
z
" transform="scale(0.015625)"/>
      <path id="DejaVuSans-Bold-2c" d="M 653 1209 
L 1778 1209 
L 1778 256 
L 1006 -909 
L 341 -909 
L 653 256 
L 653 1209 
z
" transform="scale(0.015625)"/>
      <path id="DejaVuSans-Bold-61" d="M 2106 1575 
Q 1756 1575 1579 1456 
Q 1403 1338 1403 1106 
Q 1403 894 1545 773 
Q 1688 653 1941 653 
Q 2256 653 2472 879 
Q 2688 1106 2688 1447 
L 2688 1575 
L 2106 1575 
z
M 3816 1997 
L 3816 0 
L 2688 0 
L 2688 519 
Q 2463 200 2181 54 
Q 1900 -91 1497 -91 
Q 953 -91 614 226 
Q 275 544 275 1050 
Q 275 1666 698 1953 
Q 1122 2241 2028 2241 
L 2688 2241 
L 2688 2328 
Q 2688 2594 2478 2717 
Q 2269 2841 1825 2841 
Q 1466 2841 1156 2769 
Q 847 2697 581 2553 
L 581 3406 
Q 941 3494 1303 3539 
Q 1666 3584 2028 3584 
Q 2975 3584 3395 3211 
Q 3816 2838 3816 1997 
z
" transform="scale(0.015625)"/>
      <path id="DejaVuSans-Bold-63" d="M 3366 3391 
L 3366 2478 
Q 3138 2634 2908 2709 
Q 2678 2784 2431 2784 
Q 1963 2784 1702 2511 
Q 1441 2238 1441 1747 
Q 1441 1256 1702 982 
Q 1963 709 2431 709 
Q 2694 709 2930 787 
Q 3166 866 3366 1019 
L 3366 103 
Q 3103 6 2833 -42 
Q 2563 -91 2291 -91 
Q 1344 -91 809 395 
Q 275 881 275 1747 
Q 275 2613 809 3098 
Q 1344 3584 2291 3584 
Q 2566 3584 2833 3536 
Q 3100 3488 3366 3391 
z
" transform="scale(0.015625)"/>
      <path id="DejaVuSans-Bold-68" d="M 4056 2131 
L 4056 0 
L 2931 0 
L 2931 347 
L 2931 1625 
Q 2931 2084 2911 2256 
Q 2891 2428 2841 2509 
Q 2775 2619 2662 2680 
Q 2550 2741 2406 2741 
Q 2056 2741 1856 2470 
Q 1656 2200 1656 1722 
L 1656 0 
L 538 0 
L 538 4863 
L 1656 4863 
L 1656 2988 
Q 1909 3294 2193 3439 
Q 2478 3584 2822 3584 
Q 3428 3584 3742 3212 
Q 4056 2841 4056 2131 
z
" transform="scale(0.015625)"/>
      <path id="DejaVuSans-d7" d="M 4488 3438 
L 3059 2003 
L 4488 575 
L 4116 197 
L 2681 1631 
L 1247 197 
L 878 575 
L 2303 2003 
L 878 3438 
L 1247 3816 
L 2681 2381 
L 4116 3816 
L 4488 3438 
z
" transform="scale(0.015625)"/>
     </defs>
     <use xlink:href="#DejaVuSans-Bold-35" transform="translate(0 0.015625)"/>
     <use xlink:href="#DejaVuSans-Bold-20" transform="translate(69.580078 0.015625)"/>
     <use xlink:href="#DejaVuSans-Bold-66" transform="translate(104.394531 0.015625)"/>
     <use xlink:href="#DejaVuSans-Bold-69" transform="translate(147.900391 0.015625)"/>
     <use xlink:href="#DejaVuSans-Bold-6c" transform="translate(182.177734 0.015625)"/>
     <use xlink:href="#DejaVuSans-Bold-74" transform="translate(216.455078 0.015625)"/>
     <use xlink:href="#DejaVuSans-Bold-65" transform="translate(264.257812 0.015625)"/>
     <use xlink:href="#DejaVuSans-Bold-72" transform="translate(332.080078 0.015625)"/>
     <use xlink:href="#DejaVuSans-Bold-73" transform="translate(381.396484 0.015625)"/>
     <use xlink:href="#DejaVuSans-Bold-2c" transform="translate(440.917969 0.015625)"/>
     <use xlink:href="#DejaVuSans-Bold-20" transform="translate(478.90625 0.015625)"/>
     <use xlink:href="#DejaVuSans-Bold-65" transform="translate(513.720703 0.015625)"/>
     <use xlink:href="#DejaVuSans-Bold-61" transform="translate(581.542969 0.015625)"/>
     <use xlink:href="#DejaVuSans-Bold-63" transform="translate(649.023438 0.015625)"/>
     <use xlink:href="#DejaVuSans-Bold-68" transform="translate(708.300781 0.015625)"/>
     <use xlink:href="#DejaVuSans-Bold-20" transform="translate(779.492188 0.015625)"/>
     <use xlink:href="#DejaVuSans-33" transform="translate(814.306641 0.015625)"/>
     <use xlink:href="#DejaVuSans-d7" transform="translate(897.412109 0.015625)"/>
     <use xlink:href="#DejaVuSans-33" transform="translate(1000.683594 0.015625)"/>
     <use xlink:href="#DejaVuSans-d7" transform="translate(1083.789062 0.015625)"/>
     <use xlink:href="#DejaVuSans-33" transform="translate(1187.060547 0.015625)"/>
    </g>
   </g>
   <g id="text_4">
    <!-- Output -->
    <g transform="translate(618.876376 558.729285) scale(0.11 -0.11)">
     <defs>
      <path id="DejaVuSans-Bold-4f" d="M 2719 3878 
Q 2169 3878 1866 3472 
Q 1563 3066 1563 2328 
Q 1563 1594 1866 1187 
Q 2169 781 2719 781 
Q 3272 781 3575 1187 
Q 3878 1594 3878 2328 
Q 3878 3066 3575 3472 
Q 3272 3878 2719 3878 
z
M 2719 4750 
Q 3844 4750 4481 4106 
Q 5119 3463 5119 2328 
Q 5119 1197 4481 553 
Q 3844 -91 2719 -91 
Q 1597 -91 958 553 
Q 319 1197 319 2328 
Q 319 3463 958 4106 
Q 1597 4750 2719 4750 
z
" transform="scale(0.015625)"/>
     </defs>
     <use xlink:href="#DejaVuSans-Bold-4f"/>
     <use xlink:href="#DejaVuSans-Bold-75" transform="translate(85.009766 0)"/>
     <use xlink:href="#DejaVuSans-Bold-74" transform="translate(156.201172 0)"/>
     <use xlink:href="#DejaVuSans-Bold-70" transform="translate(204.003906 0)"/>
     <use xlink:href="#DejaVuSans-Bold-75" transform="translate(275.585938 0)"/>
     <use xlink:href="#DejaVuSans-Bold-74" transform="translate(346.777344 0)"/>
    </g>
    <!-- $C=5, H=10, W=10$ -->
    <g transform="translate(583.762313 571.046879) scale(0.11 -0.11)">
     <defs>
      <path id="DejaVuSans-35" d="M 691 4666 
L 3169 4666 
L 3169 4134 
L 1269 4134 
L 1269 2991 
Q 1406 3038 1543 3061 
Q 1681 3084 1819 3084 
Q 2600 3084 3056 2656 
Q 3513 2228 3513 1497 
Q 3513 744 3044 326 
Q 2575 -91 1722 -91 
Q 1428 -91 1123 -41 
Q 819 9 494 109 
L 494 744 
Q 775 591 1075 516 
Q 1375 441 1709 441 
Q 2250 441 2565 725 
Q 2881 1009 2881 1497 
Q 2881 1984 2565 2268 
Q 2250 2553 1709 2553 
Q 1456 2553 1204 2497 
Q 953 2441 691 2322 
L 691 4666 
z
" transform="scale(0.015625)"/>
      <path id="DejaVuSans-30" d="M 2034 4250 
Q 1547 4250 1301 3770 
Q 1056 3291 1056 2328 
Q 1056 1369 1301 889 
Q 1547 409 2034 409 
Q 2525 409 2770 889 
Q 3016 1369 3016 2328 
Q 3016 3291 2770 3770 
Q 2525 4250 2034 4250 
z
M 2034 4750 
Q 2819 4750 3233 4129 
Q 3647 3509 3647 2328 
Q 3647 1150 3233 529 
Q 2819 -91 2034 -91 
Q 1250 -91 836 529 
Q 422 1150 422 2328 
Q 422 3509 836 4129 
Q 1250 4750 2034 4750 
z
" transform="scale(0.015625)"/>
     </defs>
     <use xlink:href="#DejaVuSans-Oblique-43" transform="translate(0 0.78125)"/>
     <use xlink:href="#DejaVuSans-3d" transform="translate(89.306641 0.78125)"/>
     <use xlink:href="#DejaVuSans-35" transform="translate(192.578125 0.78125)"/>
     <use xlink:href="#DejaVuSans-2c" transform="translate(256.201172 0.78125)"/>
     <use xlink:href="#DejaVuSans-Oblique-48" transform="translate(307.470703 0.78125)"/>
     <use xlink:href="#DejaVuSans-3d" transform="translate(402.148438 0.78125)"/>
     <use xlink:href="#DejaVuSans-31" transform="translate(505.419922 0.78125)"/>
     <use xlink:href="#DejaVuSans-30" transform="translate(569.042969 0.78125)"/>
     <use xlink:href="#DejaVuSans-2c" transform="translate(632.666016 0.78125)"/>
     <use xlink:href="#DejaVuSans-Oblique-57" transform="translate(683.935547 0.78125)"/>
     <use xlink:href="#DejaVuSans-3d" transform="translate(802.294922 0.78125)"/>
     <use xlink:href="#DejaVuSans-31" transform="translate(905.566406 0.78125)"/>
     <use xlink:href="#DejaVuSans-30" transform="translate(969.189453 0.78125)"/>
    </g>
   </g>
   <g id="text_5">
    <!-- depth -->
    <g style="fill: #1a5276" transform="translate(493.039042 392.265141) scale(0.1 -0.1)">
     <defs>
      <path id="DejaVuSans-Bold-64" d="M 2919 2988 
L 2919 4863 
L 4044 4863 
L 4044 0 
L 2919 0 
L 2919 506 
Q 2688 197 2409 53 
Q 2131 -91 1766 -91 
Q 1119 -91 703 423 
Q 288 938 288 1747 
Q 288 2556 703 3070 
Q 1119 3584 1766 3584 
Q 2128 3584 2408 3439 
Q 2688 3294 2919 2988 
z
M 2181 722 
Q 2541 722 2730 984 
Q 2919 1247 2919 1747 
Q 2919 2247 2730 2509 
Q 2541 2772 2181 2772 
Q 1825 2772 1636 2509 
Q 1447 2247 1447 1747 
Q 1447 1247 1636 984 
Q 1825 722 2181 722 
z
" transform="scale(0.015625)"/>
     </defs>
     <use xlink:href="#DejaVuSans-Bold-64"/>
     <use xlink:href="#DejaVuSans-Bold-65" transform="translate(71.582031 0)"/>
     <use xlink:href="#DejaVuSans-Bold-70" transform="translate(139.404297 0)"/>
     <use xlink:href="#DejaVuSans-Bold-74" transform="translate(210.986328 0)"/>
     <use xlink:href="#DejaVuSans-Bold-68" transform="translate(258.789062 0)"/>
    </g>
    <!-- $C=5$ -->
    <g style="fill: #1a5276" transform="translate(500.335917 403.462954) scale(0.1 -0.1)">
     <use xlink:href="#DejaVuSans-Oblique-43" transform="translate(0 0.78125)"/>
     <use xlink:href="#DejaVuSans-3d" transform="translate(89.306641 0.78125)"/>
     <use xlink:href="#DejaVuSans-35" transform="translate(192.578125 0.78125)"/>
    </g>
    <!-- $=$ #filters -->
    <g style="fill: #1a5276" transform="translate(468.235917 414.660766) scale(0.1 -0.1)">
     <defs>
      <path id="DejaVuSans-Bold-23" d="M 2847 4594 
L 2547 3391 
L 3372 3391 
L 3675 4594 
L 4366 4594 
L 4063 3391 
L 4928 3391 
L 4928 2725 
L 3897 2725 
L 3681 1869 
L 4569 1869 
L 4569 1197 
L 3519 1197 
L 3219 0 
L 2528 0 
L 2828 1197 
L 2003 1197 
L 1703 0 
L 1006 0 
L 1306 1197 
L 434 1197 
L 434 1869 
L 1459 1869 
L 1678 2725 
L 794 2725 
L 794 3391 
L 1850 3391 
L 2150 4594 
L 2847 4594 
z
M 3200 2725 
L 2375 2725 
L 2156 1869 
L 2981 1869 
L 3200 2725 
z
" transform="scale(0.015625)"/>
     </defs>
     <use xlink:href="#DejaVuSans-3d" transform="translate(19.482422 0.015625)"/>
     <use xlink:href="#DejaVuSans-Bold-20" transform="translate(122.753906 0.015625)"/>
     <use xlink:href="#DejaVuSans-Bold-23" transform="translate(157.568359 0.015625)"/>
     <use xlink:href="#DejaVuSans-Bold-66" transform="translate(241.357422 0.015625)"/>
     <use xlink:href="#DejaVuSans-Bold-69" transform="translate(284.863281 0.015625)"/>
     <use xlink:href="#DejaVuSans-Bold-6c" transform="translate(319.140625 0.015625)"/>
     <use xlink:href="#DejaVuSans-Bold-74" transform="translate(353.417969 0.015625)"/>
     <use xlink:href="#DejaVuSans-Bold-65" transform="translate(401.220703 0.015625)"/>
     <use xlink:href="#DejaVuSans-Bold-72" transform="translate(469.042969 0.015625)"/>
     <use xlink:href="#DejaVuSans-Bold-73" transform="translate(518.359375 0.015625)"/>
    </g>
   </g>
   <g id="line2d_1">
    <path d="M 447.638694 564.014157 
L 538.762738 411.903182 
" clip-path="url(#pf8f5f0f4a3)" style="fill: none; stroke-dasharray: 3.33,1.44; stroke-dashoffset: 0; stroke: #888888; stroke-opacity: 0.5; stroke-width: 0.9"/>
   </g>
   <g id="line2d_2">
    <path d="M 447.638694 474.417331 
L 545.889759 407.423341 
" clip-path="url(#pf8f5f0f4a3)" style="fill: none; stroke-dasharray: 3.33,1.44; stroke-dashoffset: 0; stroke: #888888; stroke-opacity: 0.5; stroke-width: 0.9"/>
   </g>
   <g id="line2d_3">
    <path d="M 447.638694 384.820505 
L 553.016779 402.943499 
" clip-path="url(#pf8f5f0f4a3)" style="fill: none; stroke-dasharray: 3.33,1.44; stroke-dashoffset: 0; stroke: #888888; stroke-opacity: 0.5; stroke-width: 0.9"/>
   </g>
   <g id="line2d_4">
    <path d="M 447.638694 295.223679 
L 560.143799 398.463658 
" clip-path="url(#pf8f5f0f4a3)" style="fill: none; stroke-dasharray: 3.33,1.44; stroke-dashoffset: 0; stroke: #888888; stroke-opacity: 0.5; stroke-width: 0.9"/>
   </g>
   <g id="line2d_5">
    <path d="M 447.638694 205.626854 
L 567.270819 393.983817 
" clip-path="url(#pf8f5f0f4a3)" style="fill: none; stroke-dasharray: 3.33,1.44; stroke-dashoffset: 0; stroke: #888888; stroke-opacity: 0.5; stroke-width: 0.9"/>
   </g>
   <g id="legend_1">
    <g id="patch_2">
     <path d="M 681.756462 147.201209 
L 837.906462 147.201209 
Q 839.706462 147.201209 839.706462 145.401209 
L 839.706462 106.650584 
Q 839.706462 104.850584 837.906462 104.850584 
L 681.756462 104.850584 
Q 679.956462 104.850584 679.956462 106.650584 
L 679.956462 145.401209 
Q 679.956462 147.201209 681.756462 147.201209 
z
" style="fill: #ffffff; opacity: 0.95; stroke: #cccccc; stroke-linejoin: miter"/>
    </g>
    <g id="patch_3">
     <path d="M 683.556462 115.289177 
L 701.556462 115.289177 
L 701.556462 108.989177 
L 683.556462 108.989177 
z
" style="fill: #e74c3c; stroke: #000000; stroke-linejoin: miter"/>
    </g>
    <g id="text_6">
     <!-- Input channels (R/G/B) -->
     <g transform="translate(708.756462 115.289177) scale(0.09 -0.09)">
      <defs>
       <path id="DejaVuSans-49" d="M 628 4666 
L 1259 4666 
L 1259 0 
L 628 0 
L 628 4666 
z
" transform="scale(0.015625)"/>
       <path id="DejaVuSans-6e" d="M 3513 2113 
L 3513 0 
L 2938 0 
L 2938 2094 
Q 2938 2591 2744 2837 
Q 2550 3084 2163 3084 
Q 1697 3084 1428 2787 
Q 1159 2491 1159 1978 
L 1159 0 
L 581 0 
L 581 3500 
L 1159 3500 
L 1159 2956 
Q 1366 3272 1645 3428 
Q 1925 3584 2291 3584 
Q 2894 3584 3203 3211 
Q 3513 2838 3513 2113 
z
" transform="scale(0.015625)"/>
       <path id="DejaVuSans-75" d="M 544 1381 
L 544 3500 
L 1119 3500 
L 1119 1403 
Q 1119 906 1312 657 
Q 1506 409 1894 409 
Q 2359 409 2629 706 
Q 2900 1003 2900 1516 
L 2900 3500 
L 3475 3500 
L 3475 0 
L 2900 0 
L 2900 538 
Q 2691 219 2414 64 
Q 2138 -91 1772 -91 
Q 1169 -91 856 284 
Q 544 659 544 1381 
z
M 1991 3584 
L 1991 3584 
z
" transform="scale(0.015625)"/>
       <path id="DejaVuSans-20" transform="scale(0.015625)"/>
       <path id="DejaVuSans-63" d="M 3122 3366 
L 3122 2828 
Q 2878 2963 2633 3030 
Q 2388 3097 2138 3097 
Q 1578 3097 1268 2742 
Q 959 2388 959 1747 
Q 959 1106 1268 751 
Q 1578 397 2138 397 
Q 2388 397 2633 464 
Q 2878 531 3122 666 
L 3122 134 
Q 2881 22 2623 -34 
Q 2366 -91 2075 -91 
Q 1284 -91 818 406 
Q 353 903 353 1747 
Q 353 2603 823 3093 
Q 1294 3584 2113 3584 
Q 2378 3584 2631 3529 
Q 2884 3475 3122 3366 
z
" transform="scale(0.015625)"/>
       <path id="DejaVuSans-61" d="M 2194 1759 
Q 1497 1759 1228 1600 
Q 959 1441 959 1056 
Q 959 750 1161 570 
Q 1363 391 1709 391 
Q 2188 391 2477 730 
Q 2766 1069 2766 1631 
L 2766 1759 
L 2194 1759 
z
M 3341 1997 
L 3341 0 
L 2766 0 
L 2766 531 
Q 2569 213 2275 61 
Q 1981 -91 1556 -91 
Q 1019 -91 701 211 
Q 384 513 384 1019 
Q 384 1609 779 1909 
Q 1175 2209 1959 2209 
L 2766 2209 
L 2766 2266 
Q 2766 2663 2505 2880 
Q 2244 3097 1772 3097 
Q 1472 3097 1187 3025 
Q 903 2953 641 2809 
L 641 3341 
Q 956 3463 1253 3523 
Q 1550 3584 1831 3584 
Q 2591 3584 2966 3190 
Q 3341 2797 3341 1997 
z
" transform="scale(0.015625)"/>
       <path id="DejaVuSans-6c" d="M 603 4863 
L 1178 4863 
L 1178 0 
L 603 0 
L 603 4863 
z
" transform="scale(0.015625)"/>
       <path id="DejaVuSans-73" d="M 2834 3397 
L 2834 2853 
Q 2591 2978 2328 3040 
Q 2066 3103 1784 3103 
Q 1356 3103 1142 2972 
Q 928 2841 928 2578 
Q 928 2378 1081 2264 
Q 1234 2150 1697 2047 
L 1894 2003 
Q 2506 1872 2764 1633 
Q 3022 1394 3022 966 
Q 3022 478 2636 193 
Q 2250 -91 1575 -91 
Q 1294 -91 989 -36 
Q 684 19 347 128 
L 347 722 
Q 666 556 975 473 
Q 1284 391 1588 391 
Q 1994 391 2212 530 
Q 2431 669 2431 922 
Q 2431 1156 2273 1281 
Q 2116 1406 1581 1522 
L 1381 1569 
Q 847 1681 609 1914 
Q 372 2147 372 2553 
Q 372 3047 722 3315 
Q 1072 3584 1716 3584 
Q 2034 3584 2315 3537 
Q 2597 3491 2834 3397 
z
" transform="scale(0.015625)"/>
       <path id="DejaVuSans-28" d="M 1984 4856 
Q 1566 4138 1362 3434 
Q 1159 2731 1159 2009 
Q 1159 1288 1364 580 
Q 1569 -128 1984 -844 
L 1484 -844 
Q 1016 -109 783 600 
Q 550 1309 550 2009 
Q 550 2706 781 3412 
Q 1013 4119 1484 4856 
L 1984 4856 
z
" transform="scale(0.015625)"/>
       <path id="DejaVuSans-52" d="M 2841 2188 
Q 3044 2119 3236 1894 
Q 3428 1669 3622 1275 
L 4263 0 
L 3584 0 
L 2988 1197 
Q 2756 1666 2539 1819 
Q 2322 1972 1947 1972 
L 1259 1972 
L 1259 0 
L 628 0 
L 628 4666 
L 2053 4666 
Q 2853 4666 3247 4331 
Q 3641 3997 3641 3322 
Q 3641 2881 3436 2590 
Q 3231 2300 2841 2188 
z
M 1259 4147 
L 1259 2491 
L 2053 2491 
Q 2509 2491 2742 2702 
Q 2975 2913 2975 3322 
Q 2975 3731 2742 3939 
Q 2509 4147 2053 4147 
L 1259 4147 
z
" transform="scale(0.015625)"/>
       <path id="DejaVuSans-2f" d="M 1625 4666 
L 2156 4666 
L 531 -594 
L 0 -594 
L 1625 4666 
z
" transform="scale(0.015625)"/>
       <path id="DejaVuSans-47" d="M 3809 666 
L 3809 1919 
L 2778 1919 
L 2778 2438 
L 4434 2438 
L 4434 434 
Q 4069 175 3628 42 
Q 3188 -91 2688 -91 
Q 1594 -91 976 548 
Q 359 1188 359 2328 
Q 359 3472 976 4111 
Q 1594 4750 2688 4750 
Q 3144 4750 3555 4637 
Q 3966 4525 4313 4306 
L 4313 3634 
Q 3963 3931 3569 4081 
Q 3175 4231 2741 4231 
Q 1884 4231 1454 3753 
Q 1025 3275 1025 2328 
Q 1025 1384 1454 906 
Q 1884 428 2741 428 
Q 3075 428 3337 486 
Q 3600 544 3809 666 
z
" transform="scale(0.015625)"/>
       <path id="DejaVuSans-42" d="M 1259 2228 
L 1259 519 
L 2272 519 
Q 2781 519 3026 730 
Q 3272 941 3272 1375 
Q 3272 1813 3026 2020 
Q 2781 2228 2272 2228 
L 1259 2228 
z
M 1259 4147 
L 1259 2741 
L 2194 2741 
Q 2656 2741 2882 2914 
Q 3109 3088 3109 3444 
Q 3109 3797 2882 3972 
Q 2656 4147 2194 4147 
L 1259 4147 
z
M 628 4666 
L 2241 4666 
Q 2963 4666 3353 4366 
Q 3744 4066 3744 3513 
Q 3744 3084 3544 2831 
Q 3344 2578 2956 2516 
Q 3422 2416 3680 2098 
Q 3938 1781 3938 1306 
Q 3938 681 3513 340 
Q 3088 0 2303 0 
L 628 0 
L 628 4666 
z
" transform="scale(0.015625)"/>
       <path id="DejaVuSans-29" d="M 513 4856 
L 1013 4856 
Q 1481 4119 1714 3412 
Q 1947 2706 1947 2009 
Q 1947 1309 1714 600 
Q 1481 -109 1013 -844 
L 513 -844 
Q 928 -128 1133 580 
Q 1338 1288 1338 2009 
Q 1338 2731 1133 3434 
Q 928 4138 513 4856 
z
" transform="scale(0.015625)"/>
      </defs>
      <use xlink:href="#DejaVuSans-49"/>
      <use xlink:href="#DejaVuSans-6e" transform="translate(29.492188 0)"/>
      <use xlink:href="#DejaVuSans-70" transform="translate(92.871094 0)"/>
      <use xlink:href="#DejaVuSans-75" transform="translate(156.347656 0)"/>
      <use xlink:href="#DejaVuSans-74" transform="translate(219.726562 0)"/>
      <use xlink:href="#DejaVuSans-20" transform="translate(258.935547 0)"/>
      <use xlink:href="#DejaVuSans-63" transform="translate(290.722656 0)"/>
      <use xlink:href="#DejaVuSans-68" transform="translate(345.703125 0)"/>
      <use xlink:href="#DejaVuSans-61" transform="translate(409.082031 0)"/>
      <use xlink:href="#DejaVuSans-6e" transform="translate(470.361328 0)"/>
      <use xlink:href="#DejaVuSans-6e" transform="translate(533.740234 0)"/>
      <use xlink:href="#DejaVuSans-65" transform="translate(597.119141 0)"/>
      <use xlink:href="#DejaVuSans-6c" transform="translate(658.642578 0)"/>
      <use xlink:href="#DejaVuSans-73" transform="translate(686.425781 0)"/>
      <use xlink:href="#DejaVuSans-20" transform="translate(738.525391 0)"/>
      <use xlink:href="#DejaVuSans-28" transform="translate(770.3125 0)"/>
      <use xlink:href="#DejaVuSans-52" transform="translate(809.326172 0)"/>
      <use xlink:href="#DejaVuSans-2f" transform="translate(878.808594 0)"/>
      <use xlink:href="#DejaVuSans-47" transform="translate(912.5 0)"/>
      <use xlink:href="#DejaVuSans-2f" transform="translate(989.990234 0)"/>
      <use xlink:href="#DejaVuSans-42" transform="translate(1023.681641 0)"/>
      <use xlink:href="#DejaVuSans-29" transform="translate(1092.285156 0)"/>
     </g>
    </g>
    <g id="patch_4">
     <path d="M 683.556462 128.49949 
L 701.556462 128.49949 
L 701.556462 122.19949 
L 683.556462 122.19949 
z
" style="fill: #b0b0b0; stroke: #000000; stroke-linejoin: miter"/>
    </g>
    <g id="text_7">
     <!-- Conv kernels ($3\times3\times3$) -->
     <g transform="translate(708.756462 128.49949) scale(0.09 -0.09)">
      <defs>
       <path id="DejaVuSans-43" d="M 4122 4306 
L 4122 3641 
Q 3803 3938 3442 4084 
Q 3081 4231 2675 4231 
Q 1875 4231 1450 3742 
Q 1025 3253 1025 2328 
Q 1025 1406 1450 917 
Q 1875 428 2675 428 
Q 3081 428 3442 575 
Q 3803 722 4122 1019 
L 4122 359 
Q 3791 134 3420 21 
Q 3050 -91 2638 -91 
Q 1578 -91 968 557 
Q 359 1206 359 2328 
Q 359 3453 968 4101 
Q 1578 4750 2638 4750 
Q 3056 4750 3426 4639 
Q 3797 4528 4122 4306 
z
" transform="scale(0.015625)"/>
       <path id="DejaVuSans-6f" d="M 1959 3097 
Q 1497 3097 1228 2736 
Q 959 2375 959 1747 
Q 959 1119 1226 758 
Q 1494 397 1959 397 
Q 2419 397 2687 759 
Q 2956 1122 2956 1747 
Q 2956 2369 2687 2733 
Q 2419 3097 1959 3097 
z
M 1959 3584 
Q 2709 3584 3137 3096 
Q 3566 2609 3566 1747 
Q 3566 888 3137 398 
Q 2709 -91 1959 -91 
Q 1206 -91 779 398 
Q 353 888 353 1747 
Q 353 2609 779 3096 
Q 1206 3584 1959 3584 
z
" transform="scale(0.015625)"/>
       <path id="DejaVuSans-76" d="M 191 3500 
L 800 3500 
L 1894 563 
L 2988 3500 
L 3597 3500 
L 2284 0 
L 1503 0 
L 191 3500 
z
" transform="scale(0.015625)"/>
       <path id="DejaVuSans-6b" d="M 581 4863 
L 1159 4863 
L 1159 1991 
L 2875 3500 
L 3609 3500 
L 1753 1863 
L 3688 0 
L 2938 0 
L 1159 1709 
L 1159 0 
L 581 0 
L 581 4863 
z
" transform="scale(0.015625)"/>
       <path id="DejaVuSans-72" d="M 2631 2963 
Q 2534 3019 2420 3045 
Q 2306 3072 2169 3072 
Q 1681 3072 1420 2755 
Q 1159 2438 1159 1844 
L 1159 0 
L 581 0 
L 581 3500 
L 1159 3500 
L 1159 2956 
Q 1341 3275 1631 3429 
Q 1922 3584 2338 3584 
Q 2397 3584 2469 3576 
Q 2541 3569 2628 3553 
L 2631 2963 
z
" transform="scale(0.015625)"/>
      </defs>
      <use xlink:href="#DejaVuSans-43" transform="translate(0 0.015625)"/>
      <use xlink:href="#DejaVuSans-6f" transform="translate(69.824219 0.015625)"/>
      <use xlink:href="#DejaVuSans-6e" transform="translate(131.005859 0.015625)"/>
      <use xlink:href="#DejaVuSans-76" transform="translate(194.384766 0.015625)"/>
      <use xlink:href="#DejaVuSans-20" transform="translate(253.564453 0.015625)"/>
      <use xlink:href="#DejaVuSans-6b" transform="translate(285.351562 0.015625)"/>
      <use xlink:href="#DejaVuSans-65" transform="translate(343.261719 0.015625)"/>
      <use xlink:href="#DejaVuSans-72" transform="translate(404.785156 0.015625)"/>
      <use xlink:href="#DejaVuSans-6e" transform="translate(445.898438 0.015625)"/>
      <use xlink:href="#DejaVuSans-65" transform="translate(509.277344 0.015625)"/>
      <use xlink:href="#DejaVuSans-6c" transform="translate(570.800781 0.015625)"/>
      <use xlink:href="#DejaVuSans-73" transform="translate(598.583984 0.015625)"/>
      <use xlink:href="#DejaVuSans-20" transform="translate(650.683594 0.015625)"/>
      <use xlink:href="#DejaVuSans-28" transform="translate(682.470703 0.015625)"/>
      <use xlink:href="#DejaVuSans-33" transform="translate(721.484375 0.015625)"/>
      <use xlink:href="#DejaVuSans-d7" transform="translate(804.589844 0.015625)"/>
      <use xlink:href="#DejaVuSans-33" transform="translate(907.861328 0.015625)"/>
      <use xlink:href="#DejaVuSans-d7" transform="translate(990.966797 0.015625)"/>
      <use xlink:href="#DejaVuSans-33" transform="translate(1094.238281 0.015625)"/>
      <use xlink:href="#DejaVuSans-29" transform="translate(1157.861328 0.015625)"/>
     </g>
    </g>
    <g id="patch_5">
     <path d="M 683.556462 141.711209 
L 701.556462 141.711209 
L 701.556462 135.411209 
L 683.556462 135.411209 
z
" style="fill: #7eb8da; opacity: 0.6; stroke: #000000; stroke-linejoin: miter"/>
    </g>
    <g id="text_8">
     <!-- Output feature maps ($C=5$) -->
     <g transform="translate(708.756462 141.711209) scale(0.09 -0.09)">
      <defs>
       <path id="DejaVuSans-4f" d="M 2522 4238 
Q 1834 4238 1429 3725 
Q 1025 3213 1025 2328 
Q 1025 1447 1429 934 
Q 1834 422 2522 422 
Q 3209 422 3611 934 
Q 4013 1447 4013 2328 
Q 4013 3213 3611 3725 
Q 3209 4238 2522 4238 
z
M 2522 4750 
Q 3503 4750 4090 4092 
Q 4678 3434 4678 2328 
Q 4678 1225 4090 567 
Q 3503 -91 2522 -91 
Q 1538 -91 948 565 
Q 359 1222 359 2328 
Q 359 3434 948 4092 
Q 1538 4750 2522 4750 
z
" transform="scale(0.015625)"/>
       <path id="DejaVuSans-66" d="M 2375 4863 
L 2375 4384 
L 1825 4384 
Q 1516 4384 1395 4259 
Q 1275 4134 1275 3809 
L 1275 3500 
L 2222 3500 
L 2222 3053 
L 1275 3053 
L 1275 0 
L 697 0 
L 697 3053 
L 147 3053 
L 147 3500 
L 697 3500 
L 697 3744 
Q 697 4328 969 4595 
Q 1241 4863 1831 4863 
L 2375 4863 
z
" transform="scale(0.015625)"/>
       <path id="DejaVuSans-6d" d="M 3328 2828 
Q 3544 3216 3844 3400 
Q 4144 3584 4550 3584 
Q 5097 3584 5394 3201 
Q 5691 2819 5691 2113 
L 5691 0 
L 5113 0 
L 5113 2094 
Q 5113 2597 4934 2840 
Q 4756 3084 4391 3084 
Q 3944 3084 3684 2787 
Q 3425 2491 3425 1978 
L 3425 0 
L 2847 0 
L 2847 2094 
Q 2847 2600 2669 2842 
Q 2491 3084 2119 3084 
Q 1678 3084 1418 2786 
Q 1159 2488 1159 1978 
L 1159 0 
L 581 0 
L 581 3500 
L 1159 3500 
L 1159 2956 
Q 1356 3278 1631 3431 
Q 1906 3584 2284 3584 
Q 2666 3584 2933 3390 
Q 3200 3197 3328 2828 
z
" transform="scale(0.015625)"/>
      </defs>
      <use xlink:href="#DejaVuSans-4f" transform="translate(0 0.015625)"/>
      <use xlink:href="#DejaVuSans-75" transform="translate(78.710938 0.015625)"/>
      <use xlink:href="#DejaVuSans-74" transform="translate(142.089844 0.015625)"/>
      <use xlink:href="#DejaVuSans-70" transform="translate(181.298828 0.015625)"/>
      <use xlink:href="#DejaVuSans-75" transform="translate(244.775391 0.015625)"/>
      <use xlink:href="#DejaVuSans-74" transform="translate(308.154297 0.015625)"/>
      <use xlink:href="#DejaVuSans-20" transform="translate(347.363281 0.015625)"/>
      <use xlink:href="#DejaVuSans-66" transform="translate(379.150391 0.015625)"/>
      <use xlink:href="#DejaVuSans-65" transform="translate(414.355469 0.015625)"/>
      <use xlink:href="#DejaVuSans-61" transform="translate(475.878906 0.015625)"/>
      <use xlink:href="#DejaVuSans-74" transform="translate(537.158203 0.015625)"/>
      <use xlink:href="#DejaVuSans-75" transform="translate(576.367188 0.015625)"/>
      <use xlink:href="#DejaVuSans-72" transform="translate(639.746094 0.015625)"/>
      <use xlink:href="#DejaVuSans-65" transform="translate(680.859375 0.015625)"/>
      <use xlink:href="#DejaVuSans-20" transform="translate(742.382812 0.015625)"/>
      <use xlink:href="#DejaVuSans-6d" transform="translate(774.169922 0.015625)"/>
      <use xlink:href="#DejaVuSans-61" transform="translate(871.582031 0.015625)"/>
      <use xlink:href="#DejaVuSans-70" transform="translate(932.861328 0.015625)"/>
      <use xlink:href="#DejaVuSans-73" transform="translate(996.337891 0.015625)"/>
      <use xlink:href="#DejaVuSans-20" transform="translate(1048.4375 0.015625)"/>
      <use xlink:href="#DejaVuSans-28" transform="translate(1080.224609 0.015625)"/>
      <use xlink:href="#DejaVuSans-Oblique-43" transform="translate(1119.238281 0.015625)"/>
      <use xlink:href="#DejaVuSans-3d" transform="translate(1208.544922 0.015625)"/>
      <use xlink:href="#DejaVuSans-35" transform="translate(1311.816406 0.015625)"/>
      <use xlink:href="#DejaVuSans-29" transform="translate(1375.439453 0.015625)"/>
     </g>
    </g>
   </g>
   <g id="patch_6">
    <path d="M 50.05278 513.717757 
L 294.407759 513.717757 
L 294.407759 269.362778 
L 50.05278 269.362778 
z
" clip-path="url(#pf8f5f0f4a3)" style="fill: #e74c3c; opacity: 0.85; stroke: #000000; stroke-width: 1.2; stroke-linejoin: miter"/>
   </g>
   <g id="patch_7">
    <path d="M 375.859419 601.278291 
L 436.948164 601.278291 
L 436.948164 540.189546 
L 375.859419 540.189546 
z
" clip-path="url(#pf8f5f0f4a3)" style="fill: #b0b0b0; opacity: 0.8; stroke: #000000; stroke-linejoin: miter"/>
   </g>
   <g id="patch_8">
    <path d="M 375.859419 511.681465 
L 436.948164 511.681465 
L 436.948164 450.59272 
L 375.859419 450.59272 
z
" clip-path="url(#pf8f5f0f4a3)" style="fill: #b0b0b0; opacity: 0.8; stroke: #000000; stroke-linejoin: miter"/>
   </g>
   <g id="patch_9">
    <path d="M 375.859419 422.08464 
L 436.948164 422.08464 
L 436.948164 360.995895 
L 375.859419 360.995895 
z
" clip-path="url(#pf8f5f0f4a3)" style="fill: #b0b0b0; opacity: 0.8; stroke: #000000; stroke-linejoin: miter"/>
   </g>
   <g id="patch_10">
    <path d="M 375.859419 332.487814 
L 436.948164 332.487814 
L 436.948164 271.399069 
L 375.859419 271.399069 
z
" clip-path="url(#pf8f5f0f4a3)" style="fill: #b0b0b0; opacity: 0.8; stroke: #000000; stroke-linejoin: miter"/>
   </g>
   <g id="patch_11">
    <path d="M 375.859419 242.890988 
L 436.948164 242.890988 
L 436.948164 181.802243 
L 375.859419 181.802243 
z
" clip-path="url(#pf8f5f0f4a3)" style="fill: #b0b0b0; opacity: 0.8; stroke: #000000; stroke-linejoin: miter"/>
   </g>
   <g id="patch_12">
    <path d="M 538.762738 513.717757 
L 742.391888 513.717757 
L 742.391888 310.088607 
L 538.762738 310.088607 
z
" clip-path="url(#pf8f5f0f4a3)" style="fill: #7eb8da; opacity: 0.6; stroke: #000000; stroke-width: 1.2; stroke-linejoin: miter"/>
   </g>
   <g id="patch_13">
    <path d="M 377.142283 600.471919 
L 438.231027 600.471919 
L 438.231027 539.383175 
L 377.142283 539.383175 
z
" clip-path="url(#pf8f5f0f4a3)" style="fill: #b0b0b0; opacity: 0.74; stroke: #000000; stroke-linejoin: miter"/>
   </g>
   <g id="patch_14">
    <path d="M 377.142283 510.875094 
L 438.231027 510.875094 
L 438.231027 449.786349 
L 377.142283 449.786349 
z
" clip-path="url(#pf8f5f0f4a3)" style="fill: #b0b0b0; opacity: 0.74; stroke: #000000; stroke-linejoin: miter"/>
   </g>
   <g id="patch_15">
    <path d="M 377.142283 421.278268 
L 438.231027 421.278268 
L 438.231027 360.189523 
L 377.142283 360.189523 
z
" clip-path="url(#pf8f5f0f4a3)" style="fill: #b0b0b0; opacity: 0.74; stroke: #000000; stroke-linejoin: miter"/>
   </g>
   <g id="patch_16">
    <path d="M 377.142283 331.681442 
L 438.231027 331.681442 
L 438.231027 270.592698 
L 377.142283 270.592698 
z
" clip-path="url(#pf8f5f0f4a3)" style="fill: #b0b0b0; opacity: 0.74; stroke: #000000; stroke-linejoin: miter"/>
   </g>
   <g id="patch_17">
    <path d="M 377.142283 242.084617 
L 438.231027 242.084617 
L 438.231027 180.995872 
L 377.142283 180.995872 
z
" clip-path="url(#pf8f5f0f4a3)" style="fill: #b0b0b0; opacity: 0.74; stroke: #000000; stroke-linejoin: miter"/>
   </g>
   <g id="patch_18">
    <path d="M 378.425146 599.665548 
L 439.513891 599.665548 
L 439.513891 538.576803 
L 378.425146 538.576803 
z
" clip-path="url(#pf8f5f0f4a3)" style="fill: #b0b0b0; opacity: 0.68; stroke: #000000; stroke-linejoin: miter"/>
   </g>
   <g id="patch_19">
    <path d="M 378.425146 510.068722 
L 439.513891 510.068722 
L 439.513891 448.979978 
L 378.425146 448.979978 
z
" clip-path="url(#pf8f5f0f4a3)" style="fill: #b0b0b0; opacity: 0.68; stroke: #000000; stroke-linejoin: miter"/>
   </g>
   <g id="patch_20">
    <path d="M 378.425146 420.471897 
L 439.513891 420.471897 
L 439.513891 359.383152 
L 378.425146 359.383152 
z
" clip-path="url(#pf8f5f0f4a3)" style="fill: #b0b0b0; opacity: 0.68; stroke: #000000; stroke-linejoin: miter"/>
   </g>
   <g id="patch_21">
    <path d="M 378.425146 330.875071 
L 439.513891 330.875071 
L 439.513891 269.786326 
L 378.425146 269.786326 
z
" clip-path="url(#pf8f5f0f4a3)" style="fill: #b0b0b0; opacity: 0.68; stroke: #000000; stroke-linejoin: miter"/>
   </g>
   <g id="patch_22">
    <path d="M 378.425146 241.278245 
L 439.513891 241.278245 
L 439.513891 180.1895 
L 378.425146 180.1895 
z
" clip-path="url(#pf8f5f0f4a3)" style="fill: #b0b0b0; opacity: 0.68; stroke: #000000; stroke-linejoin: miter"/>
   </g>
   <g id="patch_23">
    <path d="M 57.1798 509.237915 
L 301.534779 509.237915 
L 301.534779 264.882936 
L 57.1798 264.882936 
z
" clip-path="url(#pf8f5f0f4a3)" style="fill: #2ecc71; opacity: 0.85; stroke: #000000; stroke-width: 1.2; stroke-linejoin: miter"/>
   </g>
   <g id="patch_24">
    <path d="M 545.889759 509.237915 
L 749.518908 509.237915 
L 749.518908 305.608766 
L 545.889759 305.608766 
z
" clip-path="url(#pf8f5f0f4a3)" style="fill: #7eb8da; opacity: 0.6; stroke: #000000; stroke-width: 1.2; stroke-linejoin: miter"/>
   </g>
   <g id="patch_25">
    <path d="M 64.306821 504.758074 
L 308.6618 504.758074 
L 308.6618 260.403095 
L 64.306821 260.403095 
z
" clip-path="url(#pf8f5f0f4a3)" style="fill: #3498db; opacity: 0.85; stroke: #000000; stroke-width: 1.2; stroke-linejoin: miter"/>
   </g>
   <g id="patch_26">
    <path d="M 553.016779 504.758074 
L 756.645928 504.758074 
L 756.645928 301.128925 
L 553.016779 301.128925 
z
" clip-path="url(#pf8f5f0f4a3)" style="fill: #7eb8da; opacity: 0.6; stroke: #000000; stroke-width: 1.2; stroke-linejoin: miter"/>
   </g>
   <g id="patch_27">
    <path d="M 560.143799 500.278233 
L 763.772948 500.278233 
L 763.772948 296.649084 
L 560.143799 296.649084 
z
" clip-path="url(#pf8f5f0f4a3)" style="fill: #7eb8da; opacity: 0.6; stroke: #000000; stroke-width: 1.2; stroke-linejoin: miter"/>
   </g>
   <g id="patch_28">
    <path d="M 567.270819 495.798392 
L 770.899969 495.798392 
L 770.899969 292.169242 
L 567.270819 292.169242 
z
" clip-path="url(#pf8f5f0f4a3)" style="fill: #7eb8da; opacity: 0.6; stroke: #000000; stroke-width: 1.2; stroke-linejoin: miter"/>
   </g>
   <g id="patch_29">
    <path d="M 307.098663 384.820505 
Q 342.769379 384.820505 376.427634 384.820505 
" style="fill: none; stroke: #333333; stroke-width: 1.8; stroke-linecap: round"/>
    <path d="M 372.427634 382.820505 
L 376.427634 384.820505 
L 372.427634 386.820505 
" style="fill: none; stroke: #333333; stroke-width: 1.8; stroke-linecap: round"/>
   </g>
   <g id="patch_30">
    <path d="M 455.722308 385.144778 
Q 502.109409 392.762029 546.510646 400.053179 
" style="fill: none; stroke: #333333; stroke-width: 1.8; stroke-linecap: round"/>
    <path d="M 542.88759 397.431449 
L 546.510646 400.053179 
L 542.239429 401.378586 
" style="fill: none; stroke: #333333; stroke-width: 1.8; stroke-linecap: round"/>
   </g>
   <g id="text_9">
    <!-- R -->
    <g style="fill: #ffffff" transform="translate(168.76527 394.023705) scale(0.09 -0.09)">
     <defs>
      <path id="DejaVuSans-Bold-52" d="M 2297 2597 
Q 2675 2597 2839 2737 
Q 3003 2878 3003 3200 
Q 3003 3519 2839 3656 
Q 2675 3794 2297 3794 
L 1791 3794 
L 1791 2597 
L 2297 2597 
z
M 1791 1766 
L 1791 0 
L 588 0 
L 588 4666 
L 2425 4666 
Q 3347 4666 3776 4356 
Q 4206 4047 4206 3378 
Q 4206 2916 3982 2619 
Q 3759 2322 3309 2181 
Q 3556 2125 3751 1926 
Q 3947 1728 4147 1325 
L 4800 0 
L 3519 0 
L 2950 1159 
Q 2778 1509 2601 1637 
Q 2425 1766 2131 1766 
L 1791 1766 
z
" transform="scale(0.015625)"/>
     </defs>
     <use xlink:href="#DejaVuSans-Bold-52"/>
    </g>
   </g>
   <g id="text_10">
    <!-- G -->
    <g style="fill: #ffffff" transform="translate(175.663774 389.543863) scale(0.09 -0.09)">
     <defs>
      <path id="DejaVuSans-Bold-47" d="M 4781 347 
Q 4331 128 3847 18 
Q 3363 -91 2847 -91 
Q 1681 -91 1000 561 
Q 319 1213 319 2328 
Q 319 3456 1012 4103 
Q 1706 4750 2913 4750 
Q 3378 4750 3804 4662 
Q 4231 4575 4609 4403 
L 4609 3438 
Q 4219 3659 3833 3768 
Q 3447 3878 3059 3878 
Q 2341 3878 1952 3476 
Q 1563 3075 1563 2328 
Q 1563 1588 1938 1184 
Q 2313 781 3003 781 
Q 3191 781 3352 804 
Q 3513 828 3641 878 
L 3641 1784 
L 2906 1784 
L 2906 2591 
L 4781 2591 
L 4781 347 
z
" transform="scale(0.015625)"/>
     </defs>
     <use xlink:href="#DejaVuSans-Bold-47"/>
    </g>
   </g>
   <g id="text_11">
    <!-- B -->
    <g style="fill: #ffffff" transform="translate(183.054466 385.064022) scale(0.09 -0.09)">
     <defs>
      <path id="DejaVuSans-Bold-42" d="M 2456 2859 
Q 2741 2859 2887 2984 
Q 3034 3109 3034 3353 
Q 3034 3594 2887 3720 
Q 2741 3847 2456 3847 
L 1791 3847 
L 1791 2859 
L 2456 2859 
z
M 2497 819 
Q 2859 819 3042 972 
Q 3225 1125 3225 1434 
Q 3225 1738 3044 1889 
Q 2863 2041 2497 2041 
L 1791 2041 
L 1791 819 
L 2497 819 
z
M 3616 2497 
Q 4003 2384 4215 2081 
Q 4428 1778 4428 1338 
Q 4428 663 3972 331 
Q 3516 0 2584 0 
L 588 0 
L 588 4666 
L 2394 4666 
Q 3366 4666 3802 4372 
Q 4238 4078 4238 3431 
Q 4238 3091 4078 2852 
Q 3919 2613 3616 2497 
z
" transform="scale(0.015625)"/>
     </defs>
     <use xlink:href="#DejaVuSans-Bold-42"/>
    </g>
   </g>
   <g id="text_12">
    <!-- $K_{1}$ -->
    <g style="fill: #444444" transform="translate(449.053917 571.731861) scale(0.08 -0.08)">
     <defs>
      <path id="DejaVuSans-Oblique-4b" d="M 1081 4666 
L 1716 4666 
L 1331 2700 
L 3781 4666 
L 4622 4666 
L 1850 2438 
L 3878 0 
L 3109 0 
L 1247 2272 
L 806 0 
L 172 0 
L 1081 4666 
z
" transform="scale(0.015625)"/>
     </defs>
     <use xlink:href="#DejaVuSans-Oblique-4b" transform="translate(0 0.09375)"/>
     <use xlink:href="#DejaVuSans-31" transform="translate(65.576172 -16.3125) scale(0.7)"/>
    </g>
   </g>
   <g id="text_13">
    <!-- $K_{2}$ -->
    <g style="fill: #444444" transform="translate(449.053917 482.135036) scale(0.08 -0.08)">
     <use xlink:href="#DejaVuSans-Oblique-4b" transform="translate(0 0.09375)"/>
     <use xlink:href="#DejaVuSans-32" transform="translate(65.576172 -16.3125) scale(0.7)"/>
    </g>
   </g>
   <g id="text_14">
    <!-- $K_{3}$ -->
    <g style="fill: #444444" transform="translate(449.053917 392.53821) scale(0.08 -0.08)">
     <use xlink:href="#DejaVuSans-Oblique-4b" transform="translate(0 0.09375)"/>
     <use xlink:href="#DejaVuSans-33" transform="translate(65.576172 -16.3125) scale(0.7)"/>
    </g>
   </g>
   <g id="text_15">
    <!-- $K_{4}$ -->
    <g style="fill: #444444" transform="translate(449.053917 302.941384) scale(0.08 -0.08)">
     <defs>
      <path id="DejaVuSans-34" d="M 2419 4116 
L 825 1625 
L 2419 1625 
L 2419 4116 
z
M 2253 4666 
L 3047 4666 
L 3047 1625 
L 3713 1625 
L 3713 1100 
L 3047 1100 
L 3047 0 
L 2419 0 
L 2419 1100 
L 313 1100 
L 313 1709 
L 2253 4666 
z
" transform="scale(0.015625)"/>
     </defs>
     <use xlink:href="#DejaVuSans-Oblique-4b" transform="translate(0 0.09375)"/>
     <use xlink:href="#DejaVuSans-34" transform="translate(65.576172 -16.3125) scale(0.7)"/>
    </g>
   </g>
   <g id="text_16">
    <!-- $K_{5}$ -->
    <g style="fill: #444444" transform="translate(449.053917 213.344559) scale(0.08 -0.08)">
     <use xlink:href="#DejaVuSans-Oblique-4b" transform="translate(0 0.09375)"/>
     <use xlink:href="#DejaVuSans-35" transform="translate(65.576172 -16.3125) scale(0.7)"/>
    </g>
   </g>
   <g id="text_17">
    <!-- 1 -->
    <g style="fill: #ffffff" transform="translate(637.446297 414.38662) scale(0.09 -0.09)">
     <defs>
      <path id="DejaVuSans-Bold-31" d="M 750 831 
L 1813 831 
L 1813 3847 
L 722 3622 
L 722 4441 
L 1806 4666 
L 2950 4666 
L 2950 831 
L 4013 831 
L 4013 0 
L 750 0 
L 750 831 
z
" transform="scale(0.015625)"/>
     </defs>
     <use xlink:href="#DejaVuSans-Bold-31"/>
    </g>
   </g>
   <g id="text_18">
    <!-- 2 -->
    <g style="fill: #ffffff" transform="translate(644.573318 409.906778) scale(0.09 -0.09)">
     <defs>
      <path id="DejaVuSans-Bold-32" d="M 1844 884 
L 3897 884 
L 3897 0 
L 506 0 
L 506 884 
L 2209 2388 
Q 2438 2594 2547 2791 
Q 2656 2988 2656 3200 
Q 2656 3528 2436 3728 
Q 2216 3928 1850 3928 
Q 1569 3928 1234 3808 
Q 900 3688 519 3450 
L 519 4475 
Q 925 4609 1322 4679 
Q 1719 4750 2100 4750 
Q 2938 4750 3402 4381 
Q 3866 4013 3866 3353 
Q 3866 2972 3669 2642 
Q 3472 2313 2841 1759 
L 1844 884 
z
" transform="scale(0.015625)"/>
     </defs>
     <use xlink:href="#DejaVuSans-Bold-32"/>
    </g>
   </g>
   <g id="text_19">
    <!-- 3 -->
    <g style="fill: #ffffff" transform="translate(651.700338 405.426937) scale(0.09 -0.09)">
     <defs>
      <path id="DejaVuSans-Bold-33" d="M 2981 2516 
Q 3453 2394 3698 2092 
Q 3944 1791 3944 1325 
Q 3944 631 3412 270 
Q 2881 -91 1863 -91 
Q 1503 -91 1142 -33 
Q 781 25 428 141 
L 428 1069 
Q 766 900 1098 814 
Q 1431 728 1753 728 
Q 2231 728 2486 893 
Q 2741 1059 2741 1369 
Q 2741 1688 2480 1852 
Q 2219 2016 1709 2016 
L 1228 2016 
L 1228 2791 
L 1734 2791 
Q 2188 2791 2409 2933 
Q 2631 3075 2631 3366 
Q 2631 3634 2415 3781 
Q 2200 3928 1806 3928 
Q 1516 3928 1219 3862 
Q 922 3797 628 3669 
L 628 4550 
Q 984 4650 1334 4700 
Q 1684 4750 2022 4750 
Q 2931 4750 3382 4451 
Q 3834 4153 3834 3553 
Q 3834 3144 3618 2883 
Q 3403 2622 2981 2516 
z
" transform="scale(0.015625)"/>
     </defs>
     <use xlink:href="#DejaVuSans-Bold-33"/>
    </g>
   </g>
   <g id="text_20">
    <!-- 4 -->
    <g style="fill: #ffffff" transform="translate(658.827358 400.947096) scale(0.09 -0.09)">
     <defs>
      <path id="DejaVuSans-Bold-34" d="M 2356 3675 
L 1038 1722 
L 2356 1722 
L 2356 3675 
z
M 2156 4666 
L 3494 4666 
L 3494 1722 
L 4159 1722 
L 4159 850 
L 3494 850 
L 3494 0 
L 2356 0 
L 2356 850 
L 288 850 
L 288 1881 
L 2156 4666 
z
" transform="scale(0.015625)"/>
     </defs>
     <use xlink:href="#DejaVuSans-Bold-34"/>
    </g>
   </g>
   <g id="text_21">
    <!-- 5 -->
    <g style="fill: #ffffff" transform="translate(665.954378 396.467254) scale(0.09 -0.09)">
     <use xlink:href="#DejaVuSans-Bold-35"/>
    </g>
   </g>
  </g>
  <g id="text_22">
   <!-- Convolution: RGB image  $\rightarrow$  multiple kernels  $\rightarrow$  output tensor -->
   <g transform="translate(190.046462 17.08) scale(0.13 -0.13)">
    <defs>
     <path id="DejaVuSans-Bold-43" d="M 4288 256 
Q 3956 84 3597 -3 
Q 3238 -91 2847 -91 
Q 1681 -91 1000 561 
Q 319 1213 319 2328 
Q 319 3447 1000 4098 
Q 1681 4750 2847 4750 
Q 3238 4750 3597 4662 
Q 3956 4575 4288 4403 
L 4288 3438 
Q 3953 3666 3628 3772 
Q 3303 3878 2944 3878 
Q 2300 3878 1931 3465 
Q 1563 3053 1563 2328 
Q 1563 1606 1931 1193 
Q 2300 781 2944 781 
Q 3303 781 3628 887 
Q 3953 994 4288 1222 
L 4288 256 
z
" transform="scale(0.015625)"/>
     <path id="DejaVuSans-Bold-6f" d="M 2203 2784 
Q 1831 2784 1636 2517 
Q 1441 2250 1441 1747 
Q 1441 1244 1636 976 
Q 1831 709 2203 709 
Q 2569 709 2762 976 
Q 2956 1244 2956 1747 
Q 2956 2250 2762 2517 
Q 2569 2784 2203 2784 
z
M 2203 3584 
Q 3106 3584 3614 3096 
Q 4122 2609 4122 1747 
Q 4122 884 3614 396 
Q 3106 -91 2203 -91 
Q 1297 -91 786 396 
Q 275 884 275 1747 
Q 275 2609 786 3096 
Q 1297 3584 2203 3584 
z
" transform="scale(0.015625)"/>
     <path id="DejaVuSans-Bold-76" d="M 97 3500 
L 1216 3500 
L 2088 1081 
L 2956 3500 
L 4078 3500 
L 2700 0 
L 1472 0 
L 97 3500 
z
" transform="scale(0.015625)"/>
     <path id="DejaVuSans-Bold-3a" d="M 716 3500 
L 1844 3500 
L 1844 2291 
L 716 2291 
L 716 3500 
z
M 716 1209 
L 1844 1209 
L 1844 0 
L 716 0 
L 716 1209 
z
" transform="scale(0.015625)"/>
     <path id="DejaVuSans-Bold-6d" d="M 3781 2919 
Q 3994 3244 4286 3414 
Q 4578 3584 4928 3584 
Q 5531 3584 5847 3212 
Q 6163 2841 6163 2131 
L 6163 0 
L 5038 0 
L 5038 1825 
Q 5041 1866 5042 1909 
Q 5044 1953 5044 2034 
Q 5044 2406 4934 2573 
Q 4825 2741 4581 2741 
Q 4263 2741 4089 2478 
Q 3916 2216 3909 1719 
L 3909 0 
L 2784 0 
L 2784 1825 
Q 2784 2406 2684 2573 
Q 2584 2741 2328 2741 
Q 2006 2741 1831 2477 
Q 1656 2213 1656 1722 
L 1656 0 
L 531 0 
L 531 3500 
L 1656 3500 
L 1656 2988 
Q 1863 3284 2130 3434 
Q 2397 3584 2719 3584 
Q 3081 3584 3359 3409 
Q 3638 3234 3781 2919 
z
" transform="scale(0.015625)"/>
     <path id="DejaVuSans-Bold-67" d="M 2919 594 
Q 2688 288 2409 144 
Q 2131 0 1766 0 
Q 1125 0 706 504 
Q 288 1009 288 1791 
Q 288 2575 706 3076 
Q 1125 3578 1766 3578 
Q 2131 3578 2409 3434 
Q 2688 3291 2919 2981 
L 2919 3500 
L 4044 3500 
L 4044 353 
Q 4044 -491 3511 -936 
Q 2978 -1381 1966 -1381 
Q 1638 -1381 1331 -1331 
Q 1025 -1281 716 -1178 
L 716 -306 
Q 1009 -475 1290 -558 
Q 1572 -641 1856 -641 
Q 2406 -641 2662 -400 
Q 2919 -159 2919 353 
L 2919 594 
z
M 2181 2772 
Q 1834 2772 1640 2515 
Q 1447 2259 1447 1791 
Q 1447 1309 1634 1061 
Q 1822 813 2181 813 
Q 2531 813 2725 1069 
Q 2919 1325 2919 1791 
Q 2919 2259 2725 2515 
Q 2531 2772 2181 2772 
z
" transform="scale(0.015625)"/>
     <path id="DejaVuSans-2192" d="M 5050 2147 
L 5050 1866 
L 3822 638 
L 3447 1013 
L 4175 1741 
L 366 1741 
L 366 2272 
L 4175 2272 
L 3447 3000 
L 3822 3375 
L 5050 2147 
z
" transform="scale(0.015625)"/>
     <path id="DejaVuSans-Bold-6b" d="M 538 4863 
L 1656 4863 
L 1656 2216 
L 2944 3500 
L 4244 3500 
L 2534 1894 
L 4378 0 
L 3022 0 
L 1656 1459 
L 1656 0 
L 538 0 
L 538 4863 
z
" transform="scale(0.015625)"/>
    </defs>
    <use xlink:href="#DejaVuSans-Bold-43" transform="translate(0 0.015625)"/>
    <use xlink:href="#DejaVuSans-Bold-6f" transform="translate(73.388672 0.015625)"/>
    <use xlink:href="#DejaVuSans-Bold-6e" transform="translate(142.089844 0.015625)"/>
    <use xlink:href="#DejaVuSans-Bold-76" transform="translate(213.28125 0.015625)"/>
    <use xlink:href="#DejaVuSans-Bold-6f" transform="translate(278.466797 0.015625)"/>
    <use xlink:href="#DejaVuSans-Bold-6c" transform="translate(347.167969 0.015625)"/>
    <use xlink:href="#DejaVuSans-Bold-75" transform="translate(381.445312 0.015625)"/>
    <use xlink:href="#DejaVuSans-Bold-74" transform="translate(452.636719 0.015625)"/>
    <use xlink:href="#DejaVuSans-Bold-69" transform="translate(500.439453 0.015625)"/>
    <use xlink:href="#DejaVuSans-Bold-6f" transform="translate(534.716797 0.015625)"/>
    <use xlink:href="#DejaVuSans-Bold-6e" transform="translate(603.417969 0.015625)"/>
    <use xlink:href="#DejaVuSans-Bold-3a" transform="translate(674.609375 0.015625)"/>
    <use xlink:href="#DejaVuSans-Bold-20" transform="translate(714.599609 0.015625)"/>
    <use xlink:href="#DejaVuSans-Bold-52" transform="translate(749.414062 0.015625)"/>
    <use xlink:href="#DejaVuSans-Bold-47" transform="translate(826.416016 0.015625)"/>
    <use xlink:href="#DejaVuSans-Bold-42" transform="translate(908.496094 0.015625)"/>
    <use xlink:href="#DejaVuSans-Bold-20" transform="translate(984.716797 0.015625)"/>
    <use xlink:href="#DejaVuSans-Bold-69" transform="translate(1019.53125 0.015625)"/>
    <use xlink:href="#DejaVuSans-Bold-6d" transform="translate(1053.808594 0.015625)"/>
    <use xlink:href="#DejaVuSans-Bold-61" transform="translate(1158.007812 0.015625)"/>
    <use xlink:href="#DejaVuSans-Bold-67" transform="translate(1225.488281 0.015625)"/>
    <use xlink:href="#DejaVuSans-Bold-65" transform="translate(1297.070312 0.015625)"/>
    <use xlink:href="#DejaVuSans-Bold-20" transform="translate(1364.892578 0.015625)"/>
    <use xlink:href="#DejaVuSans-Bold-20" transform="translate(1399.707031 0.015625)"/>
    <use xlink:href="#DejaVuSans-2192" transform="translate(1454.003906 0.015625)"/>
    <use xlink:href="#DejaVuSans-Bold-20" transform="translate(1557.275391 0.015625)"/>
    <use xlink:href="#DejaVuSans-Bold-20" transform="translate(1592.089844 0.015625)"/>
    <use xlink:href="#DejaVuSans-Bold-6d" transform="translate(1626.904297 0.015625)"/>
    <use xlink:href="#DejaVuSans-Bold-75" transform="translate(1731.103516 0.015625)"/>
    <use xlink:href="#DejaVuSans-Bold-6c" transform="translate(1802.294922 0.015625)"/>
    <use xlink:href="#DejaVuSans-Bold-74" transform="translate(1836.572266 0.015625)"/>
    <use xlink:href="#DejaVuSans-Bold-69" transform="translate(1884.375 0.015625)"/>
    <use xlink:href="#DejaVuSans-Bold-70" transform="translate(1918.652344 0.015625)"/>
    <use xlink:href="#DejaVuSans-Bold-6c" transform="translate(1990.234375 0.015625)"/>
    <use xlink:href="#DejaVuSans-Bold-65" transform="translate(2024.511719 0.015625)"/>
    <use xlink:href="#DejaVuSans-Bold-20" transform="translate(2092.333984 0.015625)"/>
    <use xlink:href="#DejaVuSans-Bold-6b" transform="translate(2127.148438 0.015625)"/>
    <use xlink:href="#DejaVuSans-Bold-65" transform="translate(2193.652344 0.015625)"/>
    <use xlink:href="#DejaVuSans-Bold-72" transform="translate(2261.474609 0.015625)"/>
    <use xlink:href="#DejaVuSans-Bold-6e" transform="translate(2310.791016 0.015625)"/>
    <use xlink:href="#DejaVuSans-Bold-65" transform="translate(2381.982422 0.015625)"/>
    <use xlink:href="#DejaVuSans-Bold-6c" transform="translate(2449.804688 0.015625)"/>
    <use xlink:href="#DejaVuSans-Bold-73" transform="translate(2484.082031 0.015625)"/>
    <use xlink:href="#DejaVuSans-Bold-20" transform="translate(2543.603516 0.015625)"/>
    <use xlink:href="#DejaVuSans-Bold-20" transform="translate(2578.417969 0.015625)"/>
    <use xlink:href="#DejaVuSans-2192" transform="translate(2632.714844 0.015625)"/>
    <use xlink:href="#DejaVuSans-Bold-20" transform="translate(2735.986328 0.015625)"/>
    <use xlink:href="#DejaVuSans-Bold-20" transform="translate(2770.800781 0.015625)"/>
    <use xlink:href="#DejaVuSans-Bold-6f" transform="translate(2805.615234 0.015625)"/>
    <use xlink:href="#DejaVuSans-Bold-75" transform="translate(2874.316406 0.015625)"/>
    <use xlink:href="#DejaVuSans-Bold-74" transform="translate(2945.507812 0.015625)"/>
    <use xlink:href="#DejaVuSans-Bold-70" transform="translate(2993.310547 0.015625)"/>
    <use xlink:href="#DejaVuSans-Bold-75" transform="translate(3064.892578 0.015625)"/>
    <use xlink:href="#DejaVuSans-Bold-74" transform="translate(3136.083984 0.015625)"/>
    <use xlink:href="#DejaVuSans-Bold-20" transform="translate(3183.886719 0.015625)"/>
    <use xlink:href="#DejaVuSans-Bold-74" transform="translate(3218.701172 0.015625)"/>
    <use xlink:href="#DejaVuSans-Bold-65" transform="translate(3266.503906 0.015625)"/>
    <use xlink:href="#DejaVuSans-Bold-6e" transform="translate(3334.326172 0.015625)"/>
    <use xlink:href="#DejaVuSans-Bold-73" transform="translate(3405.517578 0.015625)"/>
    <use xlink:href="#DejaVuSans-Bold-6f" transform="translate(3465.039062 0.015625)"/>
    <use xlink:href="#DejaVuSans-Bold-72" transform="translate(3533.740234 0.015625)"/>
   </g>
  </g>
 </g>
 <defs>
  <clipPath id="pf8f5f0f4a3">
   <rect x="9.32695" y="100.350584" width="834.879512" height="494.818833"/>
  </clipPath>
 </defs>
</svg>
